<svg xmlns="http://www.w3.org/2000/svg" viewBox="0 0 1200 260" width="1200" height="260">
  <rect width="1200" height="260" fill="#fafaf9" />
    <g>
      <rect x="24" y="24" width="273" height="212" rx="16"
        fill="#eef2ff" stroke="#c7d2fe" stroke-width="2" />
      <circle cx="58" cy="58" r="18" fill="#4f46e5" />
      <text x="58" y="58" text-anchor="middle" dominant-baseline="central"
        font-family="sans-serif" font-size="18" font-weight="700" fill="#ffffff">1</text>
      <text x="160.5" y="114" text-anchor="middle"
        font-family="'Hiragino Sans','Noto Sans JP',sans-serif" font-size="20" font-weight="700"
        fill="#0f172a"><tspan x="160.5" dy="0">進むAIエージェン</tspan><tspan x="160.5" dy="1.5em">トの自律化と業務連</tspan><tspan x="160.5" dy="1.5em">携ツール群</tspan></text>
      <rect x="44" y="222" width="233" height="4" rx="2"
        fill="#4f46e5" />
    </g>
    <g>
      <rect x="317" y="24" width="273" height="212" rx="16"
        fill="#f0f9ff" stroke="#bae6fd" stroke-width="2" />
      <circle cx="351" cy="58" r="18" fill="#0284c7" />
      <text x="351" y="58" text-anchor="middle" dominant-baseline="central"
        font-family="sans-serif" font-size="18" font-weight="700" fill="#ffffff">2</text>
      <text x="453.5" y="114" text-anchor="middle"
        font-family="'Hiragino Sans','Noto Sans JP',sans-serif" font-size="20" font-weight="700"
        fill="#0f172a"><tspan x="453.5" dy="0">ローカルLLMと</tspan><tspan x="453.5" dy="1.5em">ファインチューニン</tspan><tspan x="453.5" dy="1.5em">グの新潮流</tspan></text>
      <rect x="337" y="222" width="233" height="4" rx="2"
        fill="#0284c7" />
    </g>
    <g>
      <rect x="610" y="24" width="273" height="212" rx="16"
        fill="#ecfdf5" stroke="#a7f3d0" stroke-width="2" />
      <circle cx="644" cy="58" r="18" fill="#059669" />
      <text x="644" y="58" text-anchor="middle" dominant-baseline="central"
        font-family="sans-serif" font-size="18" font-weight="700" fill="#ffffff">3</text>
      <text x="746.5" y="114" text-anchor="middle"
        font-family="'Hiragino Sans','Noto Sans JP',sans-serif" font-size="20" font-weight="700"
        fill="#0f172a"><tspan x="746.5" dy="0">AI組織の台頭と人</tspan><tspan x="746.5" dy="1.5em">間・エージェントの</tspan><tspan x="746.5" dy="1.5em">協働</tspan></text>
      <rect x="630" y="222" width="233" height="4" rx="2"
        fill="#059669" />
    </g>
    <g>
      <rect x="903" y="24" width="273" height="212" rx="16"
        fill="#fffbeb" stroke="#fde68a" stroke-width="2" />
      <circle cx="937" cy="58" r="18" fill="#d97706" />
      <text x="937" y="58" text-anchor="middle" dominant-baseline="central"
        font-family="sans-serif" font-size="18" font-weight="700" fill="#ffffff">4</text>
      <text x="1039.5" y="114" text-anchor="middle"
        font-family="'Hiragino Sans','Noto Sans JP',sans-serif" font-size="20" font-weight="700"
        fill="#0f172a"><tspan x="1039.5" dy="0">最新フラグシップモ</tspan><tspan x="1039.5" dy="1.5em">デルとプラットフォー</tspan><tspan x="1039.5" dy="1.5em">ムの動向</tspan></text>
      <rect x="923" y="222" width="233" height="4" rx="2"
        fill="#d97706" />
    </g>
</svg>
